<svg width="11" height="20" viewBox="0 0 11 20" fill="none" xmlns="http://www.w3.org/2000/svg">
<path d="M8.66667 18.75L0.750001 10.8333C0.611112 10.6944 0.513889 10.5556 0.458334 10.4167C0.402778 10.2778 0.375 10.125 0.375 9.95833C0.375 9.79167 0.402778 9.64583 0.458334 9.52083C0.513889 9.39583 0.611112 9.26389 0.750001 9.125L8.70833 1.16667C8.90278 0.972222 9.13194 0.875 9.39583 0.875C9.65972 0.875 9.88889 0.972222 10.0833 1.16667C10.25 1.36111 10.3333 1.59722 10.3333 1.875C10.3333 2.15278 10.2361 2.38889 10.0417 2.58333L2.625 9.95833L10.0833 17.4167C10.25 17.6111 10.3333 17.8264 10.3333 18.0625C10.3333 18.2986 10.25 18.5278 10.0833 18.75C9.88889 18.9444 9.65278 19.0417 9.375 19.0417C9.09722 19.0417 8.86111 18.9444 8.66667 18.75Z" fill="black"/>
</svg>
