<svg width="14" height="14" viewBox="0 0 14 14" fill="none" xmlns="http://www.w3.org/2000/svg">
<path d="M10.3334 1.22664C11.3389 1.80721 12.1753 2.64032 12.7599 3.6435C13.3445 4.64669 13.6569 5.78515 13.6663 6.9462C13.6757 8.10724 13.3817 9.25061 12.8134 10.2631C12.2451 11.2756 11.4222 12.1221 10.4262 12.7188C9.4302 13.3156 8.29562 13.6419 7.13477 13.6653C5.97393 13.6888 4.82707 13.4087 3.80774 12.8528C2.78841 12.2968 1.93195 11.4843 1.32315 10.4956C0.714349 9.50697 0.374314 8.37644 0.336707 7.21597L0.333374 6.99997L0.336707 6.78397C0.374043 5.63263 0.709072 4.51061 1.30913 3.5273C1.90919 2.54399 2.75381 1.73294 3.76064 1.17322C4.76746 0.613511 5.90214 0.324233 7.05404 0.333594C8.20595 0.342955 9.33578 0.650634 10.3334 1.22664ZM7.00004 2.99997C6.83675 2.99999 6.67915 3.05994 6.55713 3.16845C6.4351 3.27695 6.35715 3.42647 6.33804 3.58864L6.33337 3.66664V6.99997L6.33937 7.0873C6.35457 7.20297 6.39986 7.31262 6.47071 7.4053L6.52871 7.47197L8.52871 9.47197L8.59137 9.52664C8.70829 9.61735 8.85206 9.66658 9.00004 9.66658C9.14802 9.66658 9.29179 9.61735 9.40871 9.52664L9.47137 9.4713L9.52671 9.40864C9.61742 9.29172 9.66665 9.14795 9.66665 8.99997C9.66665 8.85199 9.61742 8.70822 9.52671 8.5913L9.47137 8.52864L7.66671 6.7233V3.66664L7.66204 3.58864C7.64294 3.42647 7.56498 3.27695 7.44296 3.16845C7.32093 3.05994 7.16333 2.99999 7.00004 2.99997Z" fill="#2F3033"/>
</svg>
