<svg width="32" height="32" viewBox="0 0 32 32" fill="none" xmlns="http://www.w3.org/2000/svg">
<rect x="0.5" y="0.5" width="31" height="31" rx="15.5" fill="white"/>
<rect x="0.5" y="0.5" width="31" height="31" rx="15.5" stroke="#005ABF"/>
<path d="M15.3333 18.6663H16.6667V12.6663H18.6667L16 9.33301L13.3333 12.6663H15.3333V18.6663Z" fill="#005ABF"/>
<path d="M11.3333 22.6667H20.6667C21.402 22.6667 22 22.0687 22 21.3333V15.3333C22 14.598 21.402 14 20.6667 14H18V15.3333H20.6667V21.3333H11.3333V15.3333H14V14H11.3333C10.598 14 10 14.598 10 15.3333V21.3333C10 22.0687 10.598 22.6667 11.3333 22.6667Z" fill="#005ABF"/>
</svg>
