<svg width="22" height="24" viewBox="0 0 22 24" fill="none" xmlns="http://www.w3.org/2000/svg">
<path d="M11 15.2607C7.51851 15.2607 0.568604 17.008 0.568604 20.4764V23.0843H21.4313V20.4764C21.4313 17.008 14.4814 15.2607 11 15.2607ZM3.17645 20.4764C3.46331 19.5376 7.49243 17.8686 11 17.8686C14.5206 17.8686 18.5627 19.5506 18.8235 20.4764H3.17645Z" fill="#005ABF"/>
<path d="M5.4452 7.4366H5.78422C5.78422 10.3183 8.11824 12.6523 10.9999 12.6523C13.8816 12.6523 16.2156 10.3183 16.2156 7.4366H16.5546C16.9067 7.4366 17.1935 7.14974 17.1935 6.79768V6.7716C17.1935 6.41954 16.9067 6.13268 16.5546 6.13268H16.2156C16.2156 4.20287 15.1594 2.54689 13.6077 1.63415V2.87287C13.6077 3.23797 13.3209 3.52484 12.9558 3.52484C12.5907 3.52484 12.3038 3.23797 12.3038 2.87287V1.09954C11.8866 0.995227 11.4563 0.916992 10.9999 0.916992C10.5435 0.916992 10.1132 0.995227 9.69598 1.09954V2.87287C9.69598 3.23797 9.40912 3.52484 9.04402 3.52484C8.67892 3.52484 8.39206 3.23797 8.39206 2.87287V1.63415C6.84039 2.54689 5.78422 4.20287 5.78422 6.13268H5.4452C5.09314 6.13268 4.80627 6.41954 4.80627 6.7716V6.81072C4.80627 7.14974 5.09314 7.4366 5.4452 7.4366ZM13.6077 7.4366C13.6077 8.87091 12.4342 10.0444 10.9999 10.0444C9.56559 10.0444 8.39206 8.87091 8.39206 7.4366H13.6077Z" fill="#005ABF"/>
</svg>
