<svg width="24" height="24" viewBox="0 0 24 24" fill="none" xmlns="http://www.w3.org/2000/svg">
<path d="M12 0.8L12.5206 0.192595C12.221 -0.0641984 11.779 -0.0641984 11.4794 0.192595L12 0.8ZM0.8 10.4L0.279366 9.79259L0 10.032V10.4H0.8ZM8.8 23.2V24C9.24182 24 9.6 23.6418 9.6 23.2H8.8ZM15.2 23.2H14.4C14.4 23.6418 14.7582 24 15.2 24V23.2ZM23.2 10.4H24V10.032L23.7206 9.79259L23.2 10.4ZM2.4 24H8.8V22.4H2.4V24ZM23.7206 9.79259L12.5206 0.192595L11.4794 1.4074L22.6794 11.0074L23.7206 9.79259ZM11.4794 0.192595L0.279366 9.79259L1.32063 11.0074L12.5206 1.4074L11.4794 0.192595ZM9.6 23.2V18.4H8V23.2H9.6ZM14.4 18.4V23.2H16V18.4H14.4ZM15.2 24H21.6V22.4H15.2V24ZM24 21.6V10.4H22.4V21.6H24ZM0 10.4V21.6H1.6V10.4H0ZM12 16C13.3255 16 14.4 17.0746 14.4 18.4H16C16 16.1909 14.2091 14.4 12 14.4V16ZM12 14.4C9.79086 14.4 8 16.1909 8 18.4H9.6C9.6 17.0746 10.6745 16 12 16V14.4ZM21.6 24C22.9254 24 24 22.9254 24 21.6H22.4C22.4 22.0418 22.0418 22.4 21.6 22.4V24ZM2.4 22.4C1.95818 22.4 1.6 22.0418 1.6 21.6H0C0 22.9254 1.07452 24 2.4 24V22.4Z" fill="#5E5E62"/>
</svg>
