<svg width="94" height="32" viewBox="0 0 94 32" fill="none" xmlns="http://www.w3.org/2000/svg">
<rect width="94" height="32" rx="12" fill="#FFD600"/>
<g clip-path="url(#clip0_116_2597)">
<path d="M13.7821 15.4166C14.014 13.3181 15.4829 11.5923 17.4434 10.9845C16.6716 12.2986 16.1937 13.8063 16.1002 15.4166H13.7821ZM18.4121 9.60982C15.1439 9.90666 12.5833 12.6543 12.5833 15.9999C12.5833 19.3456 15.1438 22.0931 18.4121 22.39L18.4167 22.3958L18.6648 22.408C18.7044 22.41 18.744 22.4117 18.7837 22.413C18.8555 22.4154 18.9276 22.4166 19 22.4166C19.0693 22.4166 19.1382 22.4155 19.2069 22.4133C19.2497 22.412 19.2926 22.4102 19.3352 22.408L19.5833 22.3958L19.5879 22.39C22.8562 22.0931 25.4167 19.3456 25.4167 15.9999C25.4167 12.6543 22.8562 9.90667 19.5879 9.60982L19.5833 9.60408L19.3346 9.59183C19.2781 9.58892 19.2214 9.58675 19.1645 9.58532C19.1098 9.58395 19.055 9.58325 19 9.58325C18.9447 9.58325 18.8894 9.58395 18.8344 9.58535C18.7779 9.58678 18.7215 9.58895 18.6654 9.59183L18.4167 9.60408L18.4121 9.60982ZM19.0007 10.7499C19.99 12.0669 20.6161 13.6714 20.7309 15.4166H17.2691C17.3839 13.6714 18.01 12.0669 18.9994 10.7499H19H19.0007ZM16.1002 16.5833C16.1937 18.1935 16.6716 19.7013 17.4434 21.0153C15.4829 20.4075 14.014 18.6817 13.7821 16.5833H16.1002ZM18.9993 21.2499C18.01 19.9329 17.3839 18.3284 17.2691 16.5833H20.7309C20.6161 18.3284 19.99 19.9329 19.0007 21.2499H19H18.9993ZM20.5566 21.0153C21.3284 19.7013 21.8063 18.1935 21.8998 16.5833H24.218C23.986 18.6817 22.5172 20.4075 20.5566 21.0153ZM21.8998 15.4166C21.8063 13.8063 21.3284 12.2986 20.5566 10.9845C22.5172 11.5923 23.986 13.3181 24.218 15.4166H21.8998Z" fill="white"/>
</g>
<path d="M31.078 21V11.13H32.87V21H31.078ZM31.12 9.884V8.26H32.828V9.884H31.12ZM34.8475 21V14.154H36.5555V15.218C36.7888 14.826 37.1015 14.5273 37.4935 14.322C37.8948 14.1167 38.3428 14.014 38.8375 14.014C40.4522 14.014 41.2595 14.952 41.2595 16.828V21H39.5095V16.912C39.5095 16.38 39.4068 15.9927 39.2015 15.75C39.0055 15.5073 38.6975 15.386 38.2775 15.386C37.7642 15.386 37.3535 15.5493 37.0455 15.876C36.7468 16.1933 36.5975 16.618 36.5975 17.15V21H34.8475ZM46.173 21.14C44.3623 21.14 43.457 20.244 43.457 18.452V15.47H42.141V14.154H43.457V12.11H45.207V14.154H47.279V15.47H45.207V18.354C45.207 18.802 45.305 19.138 45.501 19.362C45.697 19.586 46.0143 19.698 46.453 19.698C46.5836 19.698 46.719 19.684 46.859 19.656C46.999 19.6187 47.1436 19.5813 47.293 19.544L47.559 20.832C47.391 20.9253 47.1763 21 46.915 21.056C46.663 21.112 46.4156 21.14 46.173 21.14ZM51.7156 21.14C50.941 21.14 50.2736 20.9953 49.7136 20.706C49.1536 20.4167 48.7196 20.006 48.4116 19.474C48.113 18.942 47.9636 18.312 47.9636 17.584C47.9636 16.8747 48.1083 16.254 48.3976 15.722C48.6963 15.19 49.1023 14.7747 49.6156 14.476C50.1383 14.168 50.731 14.014 51.3936 14.014C52.3643 14.014 53.1296 14.322 53.6896 14.938C54.259 15.554 54.5436 16.394 54.5436 17.458V17.976H49.6436C49.7743 19.1987 50.4743 19.81 51.7436 19.81C52.1263 19.81 52.509 19.754 52.8916 19.642C53.2743 19.5207 53.6243 19.334 53.9416 19.082L54.4316 20.258C54.105 20.5287 53.6943 20.7433 53.1996 20.902C52.705 21.0607 52.2103 21.14 51.7156 21.14ZM51.4636 15.204C50.9503 15.204 50.535 15.3627 50.2176 15.68C49.9003 15.9973 49.709 16.4267 49.6436 16.968H53.0876C53.0503 16.3987 52.8916 15.9647 52.6116 15.666C52.341 15.358 51.9583 15.204 51.4636 15.204ZM55.9295 21V14.154H57.6375V15.358C57.9735 14.546 58.6922 14.098 59.7935 14.014L60.3255 13.972L60.4375 15.456L59.4295 15.554C58.2815 15.666 57.7075 16.254 57.7075 17.318V21H55.9295ZM61.412 21V14.154H63.12V15.218C63.3533 14.826 63.666 14.5273 64.058 14.322C64.4593 14.1167 64.9073 14.014 65.402 14.014C67.0166 14.014 67.824 14.952 67.824 16.828V21H66.074V16.912C66.074 16.38 65.9713 15.9927 65.766 15.75C65.57 15.5073 65.262 15.386 64.842 15.386C64.3286 15.386 63.918 15.5493 63.61 15.876C63.3113 16.1933 63.162 16.618 63.162 17.15V21H61.412ZM72.9754 21.14C72.2007 21.14 71.5334 20.9953 70.9734 20.706C70.4134 20.4167 69.9794 20.006 69.6714 19.474C69.3727 18.942 69.2234 18.312 69.2234 17.584C69.2234 16.8747 69.3681 16.254 69.6574 15.722C69.9561 15.19 70.3621 14.7747 70.8754 14.476C71.3981 14.168 71.9907 14.014 72.6534 14.014C73.6241 14.014 74.3894 14.322 74.9494 14.938C75.5187 15.554 75.8034 16.394 75.8034 17.458V17.976H70.9034C71.0341 19.1987 71.7341 19.81 73.0034 19.81C73.3861 19.81 73.7687 19.754 74.1514 19.642C74.5341 19.5207 74.8841 19.334 75.2014 19.082L75.6914 20.258C75.3647 20.5287 74.9541 20.7433 74.4594 20.902C73.9647 21.0607 73.4701 21.14 72.9754 21.14ZM72.7234 15.204C72.2101 15.204 71.7947 15.3627 71.4774 15.68C71.1601 15.9973 70.9687 16.4267 70.9034 16.968H74.3474C74.3101 16.3987 74.1514 15.9647 73.8714 15.666C73.6007 15.358 73.2181 15.204 72.7234 15.204ZM80.298 21.14C78.4873 21.14 77.582 20.244 77.582 18.452V15.47H76.266V14.154H77.582V12.11H79.332V14.154H81.404V15.47H79.332V18.354C79.332 18.802 79.43 19.138 79.626 19.362C79.822 19.586 80.1393 19.698 80.578 19.698C80.7086 19.698 80.844 19.684 80.984 19.656C81.124 19.6187 81.2686 19.5813 81.418 19.544L81.684 20.832C81.516 20.9253 81.3013 21 81.04 21.056C80.788 21.112 80.5406 21.14 80.298 21.14Z" fill="white"/>
<defs>
<clipPath id="clip0_116_2597">
<rect width="14" height="14" fill="white" transform="translate(12 9)"/>
</clipPath>
</defs>
</svg>
