<svg width="20" height="20" viewBox="0 0 20 20" fill="none" xmlns="http://www.w3.org/2000/svg">
<path d="M10.05 14.75C10.2167 14.75 10.3542 14.6958 10.4625 14.5875C10.5708 14.4792 10.625 14.3417 10.625 14.175V9.55C10.625 9.4 10.5708 9.27083 10.4625 9.1625C10.3542 9.05417 10.2167 9 10.05 9C9.88333 9 9.75 9.05417 9.65 9.1625C9.55 9.27083 9.5 9.40833 9.5 9.575V14.2C9.5 14.35 9.55417 14.4792 9.6625 14.5875C9.77083 14.6958 9.9 14.75 10.05 14.75ZM10 7.4C10.1833 7.4 10.3417 7.3375 10.475 7.2125C10.6083 7.0875 10.675 6.925 10.675 6.725C10.675 6.54167 10.6083 6.38333 10.475 6.25C10.3417 6.11667 10.1833 6.05 10 6.05C9.8 6.05 9.6375 6.11667 9.5125 6.25C9.3875 6.38333 9.325 6.54167 9.325 6.725C9.325 6.925 9.39167 7.0875 9.525 7.2125C9.65833 7.3375 9.81667 7.4 10 7.4ZM10 19.5C8.66667 19.5 7.42083 19.2583 6.2625 18.775C5.10417 18.2917 4.09583 17.6208 3.2375 16.7625C2.37917 15.9042 1.70833 14.8958 1.225 13.7375C0.741667 12.5792 0.5 11.3333 0.5 10C0.5 8.66667 0.741667 7.425 1.225 6.275C1.70833 5.125 2.37917 4.12083 3.2375 3.2625C4.09583 2.40417 5.10417 1.72917 6.2625 1.2375C7.42083 0.745833 8.66667 0.5 10 0.5C11.3333 0.5 12.575 0.745833 13.725 1.2375C14.875 1.72917 15.8792 2.40417 16.7375 3.2625C17.5958 4.12083 18.2708 5.125 18.7625 6.275C19.2542 7.425 19.5 8.66667 19.5 10C19.5 11.3333 19.2542 12.5792 18.7625 13.7375C18.2708 14.8958 17.5958 15.9042 16.7375 16.7625C15.8792 17.6208 14.875 18.2917 13.725 18.775C12.575 19.2583 11.3333 19.5 10 19.5ZM10 18.375C12.3 18.375 14.2708 17.5542 15.9125 15.9125C17.5542 14.2708 18.375 12.3 18.375 10C18.375 7.7 17.5542 5.72917 15.9125 4.0875C14.2708 2.44583 12.3 1.625 10 1.625C7.7 1.625 5.72917 2.44583 4.0875 4.0875C2.44583 5.72917 1.625 7.7 1.625 10C1.625 12.3 2.44583 14.2708 4.0875 15.9125C5.72917 17.5542 7.7 18.375 10 18.375Z" fill="#005ABF"/>
</svg>
