<svg width="14" height="14" viewBox="0 0 14 14" fill="none" xmlns="http://www.w3.org/2000/svg">
<path d="M1.78411 6.41671C2.01609 4.31819 3.48493 2.59245 5.44548 1.98464C4.6737 3.29869 4.19577 4.80646 4.10229 6.41671H1.78411ZM6.41419 0.609945C3.14591 0.906786 0.585403 3.6544 0.585403 7.00004C0.585403 10.3457 3.14589 13.0933 6.41419 13.3902L6.41874 13.3959L6.66689 13.4081C6.70644 13.4101 6.74605 13.4118 6.78577 13.4131C6.85758 13.4155 6.92968 13.4167 7.00207 13.4167C7.07131 13.4167 7.14026 13.4156 7.20892 13.4134C7.2518 13.4121 7.29461 13.4103 7.33725 13.4081L7.5854 13.3959L7.58995 13.3902C10.8583 13.0933 13.4187 10.3457 13.4187 7.00004C13.4187 3.6544 10.8583 0.906792 7.58995 0.609945L7.58535 0.604205L7.33667 0.591949C7.28015 0.589044 7.22345 0.586874 7.16651 0.585439C7.11185 0.584068 7.05702 0.583374 7.00207 0.583374C6.94671 0.583374 6.89147 0.584074 6.83646 0.585468C6.77994 0.586903 6.72359 0.589067 6.66741 0.591949L6.4188 0.604205L6.41419 0.609945ZM7.00271 1.75004C7.9921 3.06701 8.61814 4.67154 8.73294 6.41671H5.27119C5.38597 4.67154 6.01204 3.06701 7.00143 1.75004H7.00207H7.00271ZM4.10229 7.58337C4.19575 9.19361 4.67368 10.7014 5.44545 12.0154C3.48491 11.4076 2.01609 9.68186 1.78411 7.58337H4.10229ZM7.00137 12.25C6.01204 10.9331 5.38596 9.32853 5.27119 7.58337H8.73294C8.6182 9.32853 7.9921 10.9331 7.00277 12.25H7.00207H7.00137ZM8.5587 12.0154C9.33045 10.7014 9.80837 9.19361 9.90188 7.58337H12.22C11.9881 9.68186 10.5192 11.4076 8.5587 12.0154ZM9.90188 6.41671C9.80837 4.80646 9.33045 3.29869 8.55864 1.98464C10.5192 2.59245 11.9881 4.31819 12.22 6.41671H9.90188Z" fill="#5E5E62"/>
</svg>
