<svg width="14" height="16" viewBox="0 0 14 16" fill="none" xmlns="http://www.w3.org/2000/svg">
<path fill-rule="evenodd" clip-rule="evenodd" d="M7.95758 15.168C9.74398 13.528 13.4 9.7136 13.4 6C13.4 2.6864 10.5344 0 6.99998 0C3.46558 0 0.599976 2.6864 0.599976 6C0.599976 9.7144 4.25678 13.528 6.04238 15.168C6.59038 15.6712 7.40958 15.6712 7.95758 15.168ZM6.99998 8.8C7.6365 8.8 8.24694 8.54714 8.69703 8.09706C9.14712 7.64697 9.39998 7.03652 9.39998 6.4C9.39998 5.76348 9.14712 5.15303 8.69703 4.70294C8.24694 4.25286 7.6365 4 6.99998 4C6.36346 4 5.75301 4.25286 5.30292 4.70294C4.85283 5.15303 4.59998 5.76348 4.59998 6.4C4.59998 7.03652 4.85283 7.64697 5.30292 8.09706C5.75301 8.54714 6.36346 8.8 6.99998 8.8Z" fill="#005ABF"/>
</svg>
