<svg width="18" height="18" viewBox="0 0 18 18" fill="none" xmlns="http://www.w3.org/2000/svg">
<path d="M4.97506 9C4.97506 8.88333 4.9945 8.77639 5.03339 8.67917C5.07228 8.58194 5.13061 8.49444 5.20839 8.41667L9.00006 4.625C9.13617 4.50833 9.29659 4.45 9.48131 4.45C9.66603 4.45 9.82645 4.51805 9.96256 4.65417C10.0987 4.79028 10.1667 4.94583 10.1667 5.12083C10.1667 5.29583 10.0987 5.46111 9.96256 5.61667L7.19172 8.32917L17.2834 8.32917C17.4778 8.32917 17.6383 8.39236 17.7646 8.51875C17.891 8.64514 17.9542 8.80556 17.9542 9C17.9542 9.19444 17.891 9.35486 17.7646 9.48125C17.6383 9.60764 17.4778 9.67083 17.2834 9.67083L7.19172 9.67083L9.96256 12.4125C10.0792 12.5486 10.1424 12.709 10.1521 12.8937C10.1619 13.0785 10.0987 13.2389 9.96256 13.375C9.82645 13.5111 9.66603 13.5792 9.48131 13.5792C9.29659 13.5792 9.13617 13.5111 9.00006 13.375L5.20839 9.58333C5.13061 9.50556 5.07228 9.41805 5.03339 9.32083C4.9945 9.22361 4.97506 9.11667 4.97506 9ZM0.250057 1.94167C0.250057 1.475 0.415334 1.07639 0.74589 0.745834C1.07645 0.415278 1.47506 0.25 1.94172 0.25L4.91672 0.25C5.09172 0.25 5.24242 0.313194 5.36881 0.439583C5.4952 0.565972 5.55839 0.726389 5.55839 0.920833C5.55839 1.11528 5.4952 1.27083 5.36881 1.3875C5.24242 1.50417 5.09172 1.5625 4.91672 1.5625L1.94172 1.5625C1.8445 1.5625 1.757 1.60139 1.67922 1.67917C1.60145 1.75694 1.56256 1.84444 1.56256 1.94167L1.56256 16.0583C1.56256 16.1556 1.60145 16.2431 1.67922 16.3208C1.757 16.3986 1.8445 16.4375 1.94172 16.4375L4.91672 16.4375C5.09172 16.4375 5.24242 16.5007 5.36881 16.6271C5.4952 16.7535 5.55839 16.9042 5.55839 17.0792C5.55839 17.2736 5.4952 17.434 5.36881 17.5604C5.24242 17.6868 5.09172 17.75 4.91672 17.75L1.94172 17.75C1.47506 17.75 1.07645 17.5847 0.74589 17.2542C0.415334 16.9236 0.250057 16.525 0.250057 16.0583L0.250057 1.94167Z" fill="#EA0A0A"/>
</svg>
