<svg width="4" height="20" viewBox="0 0 4 20" fill="none" xmlns="http://www.w3.org/2000/svg">
<path d="M2 1C2.55227 1 3 1.44772 3 2C3 2.55228 2.55227 3 2 3C1.44773 3 1 2.55228 1 2C1 1.44772 1.44773 1 2 1ZM2 8.99996C2.55227 8.99996 3 9.44769 3 9.99996C3 10.5522 2.55227 11 2 11C1.44773 11 1 10.5522 1 9.99996C1 9.44769 1.44773 8.99996 2 8.99996ZM2 17C2.55227 17 3 17.4477 3 18C3 18.5522 2.55227 19 2 19C1.44773 19 1 18.5522 1 18C1 17.4477 1.44773 17 2 17Z" fill="black" stroke="black" stroke-width="1.5"/>
</svg>
