<svg width="21" height="20" viewBox="0 0 21 20" fill="none" xmlns="http://www.w3.org/2000/svg">
<path fill-rule="evenodd" clip-rule="evenodd" d="M8.7601 16.6917H1.40894C0.925936 16.6917 0.533936 16.2997 0.533936 15.8167C0.533936 15.3337 0.925936 14.9417 1.40894 14.9417H8.7601C9.2431 14.9417 9.6351 15.3337 9.6351 15.8167C9.6351 16.2997 9.2431 16.6917 8.7601 16.6917" fill="#005ABF"/>
<path fill-rule="evenodd" clip-rule="evenodd" d="M19.3894 5.38379H12.0394C11.5564 5.38379 11.1644 4.99179 11.1644 4.50879C11.1644 4.02579 11.5564 3.63379 12.0394 3.63379H19.3894C19.8724 3.63379 20.2644 4.02579 20.2644 4.50879C20.2644 4.99179 19.8724 5.38379 19.3894 5.38379" fill="#005ABF"/>
<mask id="mask0_268_843" style="mask-type:luminance" maskUnits="userSpaceOnUse" x="0" y="0" width="8" height="9">
<path fill-rule="evenodd" clip-rule="evenodd" d="M0.5 0.83374H7.76343V8.05727H0.5V0.83374Z" fill="white"/>
</mask>
<g mask="url(#mask0_268_843)">
<path fill-rule="evenodd" clip-rule="evenodd" d="M4.13159 2.58325C3.09442 2.58325 2.24976 3.41859 2.24976 4.44642C2.24976 5.47308 3.09442 6.30725 4.13159 6.30725C5.16992 6.30725 6.01342 5.47308 6.01342 4.44642C6.01342 3.41859 5.16992 2.58325 4.13159 2.58325M4.13159 8.05725C2.12959 8.05725 0.499756 6.43792 0.499756 4.44642C0.499756 2.45492 2.12959 0.833252 4.13159 0.833252C6.13476 0.833252 7.76342 2.45492 7.76342 4.44642C7.76342 6.43792 6.13476 8.05725 4.13159 8.05725" fill="#005ABF"/>
</g>
<path fill-rule="evenodd" clip-rule="evenodd" d="M17.2856 13.9092C16.2473 13.9092 15.4026 14.7445 15.4026 15.7712C15.4026 16.799 16.2473 17.6332 17.2856 17.6332C18.3228 17.6332 19.1663 16.799 19.1663 15.7712C19.1663 14.7445 18.3228 13.9092 17.2856 13.9092M17.2856 19.3832C15.2824 19.3832 13.6526 17.7627 13.6526 15.7712C13.6526 13.7797 15.2824 12.1592 17.2856 12.1592C19.2876 12.1592 20.9163 13.7797 20.9163 15.7712C20.9163 17.7627 19.2876 19.3832 17.2856 19.3832" fill="#005ABF"/>
</svg>
