<svg width="24" height="24" viewBox="0 0 24 24" fill="none" xmlns="http://www.w3.org/2000/svg">
<path d="M22.7246 18.5586C22.356 19.2282 21.6496 19.7273 20.8135 19.7273H3.20621C1.40631 19.7273 0.387156 17.8513 1.40281 16.3612L1.40729 16.3547L1.41165 16.348L3.19669 13.6378L3.36155 13.3875V13.0877V9.34663C3.36155 4.74828 7.22075 1 11.9483 1C14.3129 1 16.4273 1.96781 18.0423 3.41622L18.0434 3.41722L18.0449 3.41867C19.5395 4.87104 20.535 7.04801 20.535 9.34663V13.0708V13.386L20.7157 13.6442L22.6029 16.341L22.6103 16.3516L22.618 16.362C23.1251 17.0483 23.0927 17.8898 22.7246 18.5586ZM22.7246 18.5586L23.6007 19.0407M8.63655 22.9091C8.63655 22.8589 8.67725 22.8182 8.72746 22.8182H15.2729C15.3231 22.8182 15.3638 22.8589 15.3638 22.9091C15.3638 22.9593 15.3231 23 15.2729 23H8.72746C8.67724 23 8.63655 22.9593 8.63655 22.9091Z" stroke="#005ABF" stroke-width="2"/>
</svg>
