<svg width="24" height="24" viewBox="0 0 24 24" fill="none" xmlns="http://www.w3.org/2000/svg">
<path fill-rule="evenodd" clip-rule="evenodd" d="M11.9524 0C6.70077 0 2.36568 4.16823 2.36568 9.34663V13.0877L0.580646 15.798C-0.907298 17.9809 0.642478 20.7273 3.21034 20.7273H20.8177C22.0715 20.7273 23.0876 19.9804 23.6048 19.0407C24.1255 18.0947 24.2066 16.8236 23.4264 15.7677L21.5392 13.0708V9.34663C21.5392 6.76871 20.4277 4.33572 18.7459 2.70151C18.7356 2.69139 18.725 2.68149 18.7142 2.67179C16.9437 1.08382 14.5991 0 11.9524 0ZM8.73159 21.8182C8.1291 21.8182 7.64068 22.3066 7.64068 22.9091C7.64068 23.5116 8.1291 24 8.73159 24H15.2771C15.8796 24 16.368 23.5116 16.368 22.9091C16.368 22.3066 15.8796 21.8182 15.2771 21.8182H8.73159Z" fill="#005ABF"/>
</svg>
