<svg width="25" height="24" viewBox="0 0 25 24" fill="none" xmlns="http://www.w3.org/2000/svg">
<path d="M4.25 9.75C3.00735 9.75 2 10.7574 2 12C2 13.2426 3.00735 14.25 4.25 14.25C5.49265 14.25 6.5 13.2426 6.5 12C6.5 10.7574 5.49265 9.75 4.25 9.75Z" fill="#5E5E62"/>
<path d="M10 12C10 10.7574 11.0074 9.75 12.25 9.75C13.4926 9.75 14.5 10.7574 14.5 12C14.5 13.2426 13.4926 14.25 12.25 14.25C11.0074 14.25 10 13.2426 10 12Z" fill="#5E5E62"/>
<path d="M18 12C18 10.7574 19.0074 9.75 20.25 9.75C21.4926 9.75 22.5 10.7574 22.5 12C22.5 13.2426 21.4926 14.25 20.25 14.25C19.0074 14.25 18 13.2426 18 12Z" fill="#5E5E62"/>
</svg>
