<svg width="18" height="24" viewBox="0 0 18 24" fill="none" xmlns="http://www.w3.org/2000/svg">
<path d="M1.125 20.0321C0.877083 20.0321 0.669271 19.9482 0.501563 19.7804C0.333854 19.6127 0.25 19.4048 0.25 19.1567C0.25 18.9087 0.333854 18.7009 0.501563 18.5334C0.669271 18.3659 0.877083 18.2821 1.125 18.2821H2.35898V9.57697C2.35898 8.00796 2.84322 6.62068 3.81169 5.41512C4.78018 4.20957 6.0235 3.43853 7.54167 3.102V2.37508C7.54167 1.97 7.68332 1.62567 7.96663 1.34212C8.24993 1.05854 8.59394 0.916748 8.99866 0.916748C9.40337 0.916748 9.74782 1.05854 10.032 1.34212C10.3162 1.62567 10.4583 1.97 10.4583 2.37508V3.102C11.9764 3.43853 13.2198 4.20957 14.1883 5.41512C15.1567 6.62068 15.641 8.00796 15.641 9.57697V18.2821H16.8749C17.1229 18.2821 17.3307 18.366 17.4984 18.5338C17.6661 18.7016 17.7499 18.9095 17.7499 19.1575C17.7499 19.4055 17.6661 19.6133 17.4984 19.7808C17.3307 19.9483 17.1229 20.0321 16.8749 20.0321H1.125ZM8.99799 23.3077C8.41747 23.3077 7.92118 23.1012 7.50912 22.6882C7.09705 22.2752 6.89102 21.7787 6.89102 21.1988H11.1089C11.1089 21.7806 10.9022 22.2775 10.4888 22.6896C10.0755 23.1017 9.5785 23.3077 8.99799 23.3077ZM4.10893 18.2821H13.891V9.57697C13.891 8.22632 13.4135 7.07349 12.4585 6.11848C11.5035 5.16345 10.3506 4.68593 8.99997 4.68593C7.64932 4.68593 6.49649 5.16345 5.54147 6.11848C4.58644 7.07349 4.10893 8.22632 4.10893 9.57697V18.2821Z" fill="#005ABF"/>
</svg>
