<svg width="16" height="15" viewBox="0 0 16 15" fill="none" xmlns="http://www.w3.org/2000/svg">
<path d="M13.625 14.8125H13.5294C2.47624 14.1769 0.906862 4.85063 0.687487 2.00438C0.66981 1.78308 0.695974 1.56046 0.764479 1.34929C0.832984 1.13812 0.942483 0.942546 1.0867 0.773767C1.23092 0.604988 1.40703 0.466324 1.60493 0.365722C1.80283 0.26512 2.01864 0.204556 2.23999 0.187501H5.33936C5.56468 0.187282 5.78486 0.254725 5.97141 0.381092C6.15795 0.507458 6.30225 0.686927 6.38561 0.896251L7.24061 3C7.32293 3.2045 7.34336 3.42867 7.29936 3.64468C7.25536 3.86068 7.14887 4.059 6.99311 4.215L5.79499 5.42438C5.98214 6.48792 6.49146 7.46831 7.25405 8.23291C8.01664 8.99751 8.99569 9.50942 10.0587 9.69938L11.2794 8.49C11.4377 8.33596 11.6379 8.23195 11.855 8.19094C12.072 8.14993 12.2964 8.17373 12.5 8.25938L14.6206 9.10875C14.8268 9.19475 15.0027 9.34017 15.1259 9.5265C15.2491 9.71283 15.3141 9.93162 15.3125 10.155V13.125C15.3125 13.5726 15.1347 14.0018 14.8182 14.3182C14.5018 14.6347 14.0725 14.8125 13.625 14.8125ZM2.37499 1.3125C2.2258 1.3125 2.08273 1.37176 1.97724 1.47725C1.87175 1.58274 1.81249 1.72582 1.81249 1.875V1.92C2.07124 5.25 3.73061 13.125 13.5912 13.6875C13.6651 13.6921 13.7392 13.682 13.8092 13.6579C13.8792 13.6338 13.9438 13.5961 13.9991 13.5469C14.0545 13.4978 14.0997 13.4382 14.132 13.3716C14.1643 13.305 14.1832 13.2327 14.1875 13.1587V10.155L12.0669 9.30562L10.4525 10.9087L10.1825 10.875C5.28874 10.2619 4.62499 5.36813 4.62499 5.3175L4.59124 5.0475L6.18874 3.43313L5.34499 1.3125H2.37499Z" fill="#005ABF"/>
</svg>
