<svg width="58" height="32" viewBox="0 0 58 32" fill="none" xmlns="http://www.w3.org/2000/svg">
<rect width="58" height="32" rx="12" fill="#FFD600"/>
<path d="M20.9916 11.9166H24.2548C24.5743 11.9166 24.8333 12.1759 24.8333 12.5004V20.6661C24.8333 20.9885 24.5677 21.2499 24.2548 21.2499H13.7452C13.4257 21.2499 13.1667 20.9905 13.1667 20.6661V12.5004C13.1667 12.178 13.4323 11.9166 13.7452 11.9166H17.0084L15.5293 10.4375L16.3543 9.61255L18.6583 11.9166H19.3417L21.6457 9.61255L22.4706 10.4375L20.9916 11.9166Z" fill="white"/>
<path d="M33.458 21V12.628H30.07V11.13H38.638V12.628H35.25V21H33.458ZM40.7053 21L37.7373 14.154H39.5993L41.5033 18.942L43.4773 14.154H45.2273L42.2173 21H40.7053Z" fill="white"/>
</svg>
