<svg width="16" height="16" viewBox="0 0 16 16" fill="none" xmlns="http://www.w3.org/2000/svg">
<path d="M8 10.3525C5.48706 10.3525 0.470581 11.6137 0.470581 14.1172V15.9996H15.5294V14.1172C15.5294 11.6137 10.5129 10.3525 8 10.3525Z" fill="#76777A"/>
<path d="M3.9906 4.70589H12.0188C12.273 4.70589 12.48 4.49883 12.48 4.24471V4.22589C12.48 3.97177 12.273 3.76471 12.0188 3.76471H11.7647C11.7647 2.37177 11.0024 1.17647 9.88237 0.517648V1.41177C9.88237 1.6753 9.67531 1.88235 9.41178 1.88235C9.14825 1.88235 8.94119 1.6753 8.94119 1.41177V0.131765C8.64001 0.0564705 8.32942 0 8.00001 0C7.6706 0 7.36001 0.0564705 7.05883 0.131765V1.41177C7.05883 1.6753 6.85178 1.88235 6.58825 1.88235C6.32472 1.88235 6.11766 1.6753 6.11766 1.41177V0.517648C4.99766 1.17647 4.2353 2.37177 4.2353 3.76471H3.9906C3.73648 3.76471 3.52942 3.97177 3.52942 4.22589V4.25412C3.52942 4.49883 3.73648 4.70589 3.9906 4.70589Z" fill="#76777A"/>
<path d="M8.00001 8.47099C9.75059 8.47099 11.2094 7.26629 11.6329 5.64746H4.36707C4.7906 7.26629 6.24942 8.47099 8.00001 8.47099Z" fill="#76777A"/>
</svg>
