<svg width="77" height="32" viewBox="0 0 77 32" fill="none" xmlns="http://www.w3.org/2000/svg">
<rect width="77" height="32" rx="12" fill="#FFD600"/>
<path d="M14.9167 13.0834H16.0833V18.9167H14.9167V13.0834ZM12.5833 14.8334H13.75V17.1667H12.5833V14.8334ZM17.25 10.1667H18.4167V20.6667H17.25V10.1667ZM19.5833 11.3334H20.75V21.8334H19.5833V11.3334ZM21.9167 13.0834H23.0833V18.9167H21.9167V13.0834ZM24.25 14.8334H25.4167V17.1667H24.25V14.8334Z" fill="white"/>
<path d="M34.242 21L29.846 11.13H31.764L35.026 18.704L38.288 11.13H40.136L35.74 21H34.242ZM43.1238 21.14C42.4145 21.14 41.7985 20.9953 41.2758 20.706C40.7531 20.4167 40.3471 20.006 40.0578 19.474C39.7685 18.9327 39.6238 18.298 39.6238 17.57C39.6238 16.842 39.7685 16.212 40.0578 15.68C40.3471 15.148 40.7531 14.7373 41.2758 14.448C41.7985 14.1587 42.4145 14.014 43.1238 14.014C43.8331 14.014 44.4491 14.1587 44.9718 14.448C45.4945 14.7373 45.9005 15.148 46.1898 15.68C46.4791 16.212 46.6238 16.842 46.6238 17.57C46.6238 18.298 46.4791 18.9327 46.1898 19.474C45.9005 20.006 45.4945 20.4167 44.9718 20.706C44.4491 20.9953 43.8331 21.14 43.1238 21.14ZM43.1238 19.81C43.6465 19.81 44.0665 19.6233 44.3838 19.25C44.7011 18.8673 44.8598 18.3073 44.8598 17.57C44.8598 16.8233 44.7011 16.268 44.3838 15.904C44.0665 15.5307 43.6465 15.344 43.1238 15.344C42.6011 15.344 42.1811 15.5307 41.8638 15.904C41.5465 16.268 41.3878 16.8233 41.3878 17.57C41.3878 18.3073 41.5465 18.8673 41.8638 19.25C42.1811 19.6233 42.6011 19.81 43.1238 19.81ZM47.9562 12.684V10.976H49.9162V12.684H47.9562ZM48.0682 21V14.154H49.8182V21H48.0682ZM54.8006 21.14C54.0819 21.14 53.4566 20.9953 52.9246 20.706C52.3926 20.4073 51.9819 19.9873 51.6926 19.446C51.4032 18.9047 51.2586 18.27 51.2586 17.542C51.2586 16.814 51.4032 16.1887 51.6926 15.666C51.9819 15.134 52.3926 14.728 52.9246 14.448C53.4566 14.1587 54.0819 14.014 54.8006 14.014C55.2392 14.014 55.6732 14.084 56.1026 14.224C56.5319 14.364 56.8866 14.56 57.1666 14.812L56.6486 16.03C56.4059 15.8153 56.1306 15.652 55.8226 15.54C55.5239 15.428 55.2346 15.372 54.9546 15.372C54.3479 15.372 53.8766 15.5633 53.5406 15.946C53.2139 16.3193 53.0506 16.856 53.0506 17.556C53.0506 18.2467 53.2139 18.7927 53.5406 19.194C53.8766 19.586 54.3479 19.782 54.9546 19.782C55.2252 19.782 55.5146 19.726 55.8226 19.614C56.1306 19.502 56.4059 19.334 56.6486 19.11L57.1666 20.342C56.8866 20.5847 56.5272 20.7807 56.0886 20.93C55.6592 21.07 55.2299 21.14 54.8006 21.14ZM61.4774 21.14C60.7027 21.14 60.0354 20.9953 59.4754 20.706C58.9154 20.4167 58.4814 20.006 58.1734 19.474C57.8747 18.942 57.7254 18.312 57.7254 17.584C57.7254 16.8747 57.87 16.254 58.1594 15.722C58.458 15.19 58.864 14.7747 59.3774 14.476C59.9 14.168 60.4927 14.014 61.1554 14.014C62.126 14.014 62.8914 14.322 63.4514 14.938C64.0207 15.554 64.3054 16.394 64.3054 17.458V17.976H59.4054C59.536 19.1987 60.236 19.81 61.5054 19.81C61.888 19.81 62.2707 19.754 62.6534 19.642C63.036 19.5207 63.386 19.334 63.7034 19.082L64.1934 20.258C63.8667 20.5287 63.456 20.7433 62.9614 20.902C62.4667 21.0607 61.972 21.14 61.4774 21.14ZM61.2254 15.204C60.712 15.204 60.2967 15.3627 59.9794 15.68C59.662 15.9973 59.4707 16.4267 59.4054 16.968H62.8494C62.812 16.3987 62.6534 15.9647 62.3734 15.666C62.1027 15.358 61.72 15.204 61.2254 15.204Z" fill="white"/>
</svg>
